# xmcd
#
# Track frame offsets:
# 150
# 6730
# 17716
# 32970
# 49713
# 63621
# 79504
# 97572
# 112207
# 117234
# 131742
#
# Disc length: 2285 seconds
#
#
# Revision: 0
# Processed by: cddbd v1.5.2PL0 Copyright (c) Steve Scherf et al.
# Submitted via: FreeRIP 2.944 
#
DISCID=9108eb0b
DTITLE=The Ghost Inside - Returners
DYEAR=2010
DGENRE=
TTITLE0=Walk away from the World
TTITLE1=Greater Distance
TTITLE2=Between the Lines
TTITLE3=Unspoken
TTITLE4=Overlooked
TTITLE5=Chrono
TTITLE6=The Conflict
TTITLE7=Downbeat
TTITLE8=The Returner
TTITLE9=Through the Cracks
TTITLE10=Truth and Temper (FTLOS)
EXTD=Mediaskare Entertainment
EXTT0=
EXTT1=
EXTT2=
EXTT3=
EXTT4=
EXTT5=
EXTT6=
EXTT7=
EXTT8=
EXTT9=
EXTT10=
PLAYORDER=
